<svg width="512" height="512" viewBox="0 0 512 512" fill="none" xmlns="http://www.w3.org/2000/svg">
<path fill-rule="evenodd" clip-rule="evenodd" d="M106.347 42.6667C77.12 42.6667 55.5093 68.2454 56.4907 95.9574C57.408 122.624 56.2133 157.12 47.5307 185.259C38.784 213.461 24.064 231.339 0 233.643V259.563C24.064 261.845 38.8053 279.723 47.5093 307.947C56.2133 336.085 57.408 370.581 56.4693 397.227C55.5093 424.96 77.12 450.539 106.347 450.539H405.696C434.923 450.539 456.533 424.96 455.552 397.227C454.635 370.581 455.829 336.085 464.512 307.947C473.237 279.723 487.936 261.867 512 259.563V233.643C487.936 231.339 473.237 213.461 464.512 185.259C455.829 157.099 454.635 122.603 455.552 95.9574C456.533 68.2241 434.901 42.6667 405.696 42.6667H106.347ZM347.093 293.739C347.093 331.925 318.613 355.072 271.36 355.072H190.912C188.609 355.072 186.401 354.157 184.772 352.529C183.144 350.901 182.229 348.692 182.229 346.389V146.795C182.235 144.496 183.152 142.293 184.78 140.669C186.408 139.045 188.613 138.133 190.912 138.133H270.912C310.315 138.133 336.192 159.467 336.192 192.256C336.192 215.253 318.784 235.84 296.619 239.467V240.661C326.805 243.968 347.115 264.875 347.115 293.739H347.093ZM262.613 165.632H216.747V230.443H255.381C285.248 230.443 301.717 218.411 301.717 196.907C301.717 176.768 287.552 165.632 262.613 165.632ZM216.747 256.149V327.552H264.32C295.403 327.552 311.893 315.072 311.893 291.627C311.893 268.16 294.955 256.149 262.315 256.149H216.747Z" fill="url(#paint0_linear_326_95)"/>
<defs>
<linearGradient id="paint0_linear_326_95" x1="-32" y1="42.6667" x2="512" y2="490.667" gradientUnits="userSpaceOnUse">
<stop stop-color="#8D12FD"/>
<stop offset="1" stop-color="#6C10F4"/>
</linearGradient>
</defs>
</svg>
